<?xml version="1.0" encoding="UTF-8"?>
<svg version="1.1" viewBox="0 0 2048 573" width="500" height="140" xmlns="http://www.w3.org/2000/svg">
<path transform="translate(936)" d="m0 0h20l11 7 18 13 16 11 18 13 40 28 18 13 16 11 15 11 19 13 18 13 34 24 13 9 33 3 25 5 18 6 19 10 14 10v-117l1-1h151l11 7 18 13 51 36 20 14 18 13 16 11 18 13 23 16 18 13 8 6 4 2 10-13 11-12 11-9 14-9 15-7 21-6 20-3 23-1h207l16 10 16 12 22 15 4 3v367h-212l-28-7-19-7-19-10-11-8-13-11-9-9-7-8-1 60h-850l-32-8-15-6-19-10-16-12-8-7-7-8-8-9-4 1-11 9-14 11-19 12-15 8-23 9-24 7-14 3h-49l-32-8-23-8-21-10-16-10-16-12-12-11-4-1-9 11-11 11-12 9-16 10-20 9-25 7-14 3h-254l-7-6-68-48-14-10-13-9v-418h158l16 10 13 10 19 13 18 13 17 12 16 11 18 13 23 16 18 13 16 11 28 20 11 7 5-5 11-12 9-8 19-13 23-12 27-9 21-4 8-1 21-1h163v-61l1-1 147-1 5-12 7-8 13-8 21-10 10-8 8-9 8-14 8-16 8-12z" fill="#1C3A23"/>
<path transform="translate(46,111)" d="m0 0h91l1 1 1 123 14-14 14-10 14-7 17-5 21-3h25l20 3 17 5 16 8 12 8 16 13 9 10 11 17 8 15 7 21 3 17 1 11v22l-2 19-5 19-6 16-11 20-9 12-11 11-11 9-9 6-23 10-21 6-12 2h-27l-16-3-18-5-14-6-14-9-12-11-5-5v34l-2 1h-90l-1-1v-359z" fill="#FDFDFD"/>
<path transform="translate(1787,197)" d="m0 0h15l18 2 20 6 11 5 14 8 11 9 7 7 2 3 1-35 1-1h91l1 1v270l-7 2-86-1v-36l-5 5-6 7-13 9-16 9-15 5-16 4-9 1h-31l-15-3-23-8-21-11-15-13-8-8-9-12-10-18-6-15-5-18-3-19v-33l3-18 7-21 8-18 9-14 9-11 8-8 15-11 16-9 12-5 15-4 13-2z" fill="#FDFDFD"/>
<path transform="translate(1341,111)" d="m0 0h90l2 2v120l11-9 15-11 16-8 17-5 19-3h30l18 3 15 5 14 7 14 10 11 10 9 12 8 15 5 15 4 21 1 11v165l-2 1h-90l-1-3v-148l-2-14-3-10-6-11-9-8-8-5-11-4-6-1h-25l-14 4-11 7-10 10-5 10-3 11-1 8v153l-3 1h-90l-1-1v-347l1-12z" fill="#FDFDFD"/>
<path transform="translate(523,196)" d="m0 0h26l26 3 17 4 20 8 16 9 14 10 15 15 11 15 8 16 6 18 3 15 1 10v30l-2 7h-206l-2 1 2 11 5 13 8 11 10 7 11 5 8 2h26l13-4 11-7 8-9 5-5 96 1-3 10-4 10-8 14-11 13-13 13-15 11-14 7-25 9-23 5-18 2h-20l-18-2-26-6-27-10-18-11-13-12-9-9-8-10-8-14-5-11-5-17-4-23v-29l3-20 5-19 7-16 6-9 14-18 10-10 15-10 17-10 22-8 20-4z" fill="#FDFDFD"/>
<path transform="translate(1186,197)" d="m0 0h26l22 3 21 7 15 9 14 11 7 7 10 15 8 16 5 18 2 14 1 174-1 1h-92l-1-155-2-13-4-10-9-12-11-8-14-5-5-1h-24l-12 3-13 7-10 10-6 12-3 12-1 13v146l-3 1h-89l-2-2v-268l1-2h91l1 1 1 32 8-7 11-9 16-9 16-6 17-4z" fill="#FDFDFD"/>
<path transform="translate(726,134)" d="m0 0h92l1 40v26h56l1 2v67l-57 1v112l3 10 5 4 7 3 5 1 36 1 2 4v66l-3 1h-36l-21-1-21-3-15-4-16-6-10-7-10-9-6-8-7-14-4-15-2-14-1-20v-102h-34l-2-2v-66l1-1h35v-65z" fill="#FDFDFD"/>
<path transform="translate(900,200)" d="m0 0h92l1 8v263l-1 1h-92l-1-6v-265z" fill="#FDFDFD"/>
<path transform="translate(194,268)" d="m0 0h17l14 3 16 8 9 7 9 10 7 14 3 12v26l-3 13-6 12-8 10-9 8-16 8-9 3-5 1h-19l-16-4-12-6-9-7-7-7-7-11-4-11-2-13v-17l3-15 5-12 8-11 12-10 16-8z" fill="#1C3A23"/>
<path transform="translate(1806,255)" d="m0 0 4 4 6 21 7 14 9 12 11 11 16 11 11 5 22 6 2 3-9 2-12 3-17 8-12 9-6 5-9 11-9 12-6 13-4 19-1 1h-5l-2-15-6-15-7-11-12-14-9-8-15-10-12-5-12-3-7-1-1-4 7-2 14-3 10-4 12-8 13-11 10-11 7-11 5-10 4-14 1-8z" fill="#1C3A23"/>
<path transform="translate(946,29)" d="m0 0 3 1 3 16 5 12 8 12 6 7 14 11 14 8 13 5h7l2 2-1 4-15 3-13 5-10 7-13 12-9 11-7 15-3 11-2 9-5-5-4-16-8-15-9-11-9-9-14-9-11-5-15-3-3-2 1-3 15-3 16-8 11-7 10-9 12-17 6-13 3-14z" fill="#FDFDFD"/>
<path transform="translate(530,262)" d="m0 0h9l14 2 11 4 11 6 8 8 5 9 3 10v8l-1 1h-109l-5-1 2-9 5-12 11-12 10-7 9-4 8-2z" fill="#1C3A23"/>
</svg>
